<svg width="546" height="130" viewBox="0 0 546 130" fill="none" xmlns="http://www.w3.org/2000/svg">
<path d="M172.83 0.799805H184.49V96.9998C184.504 98.4072 184.234 99.8029 183.696 101.104C183.158 102.404 182.364 103.583 181.36 104.57C180.402 105.593 179.241 106.407 177.952 106.957C176.662 107.508 175.272 107.785 173.87 107.77H163.24V101.65C156.781 105.548 149.385 107.622 141.84 107.65C136.229 107.732 130.66 106.664 125.478 104.51C120.296 102.357 115.61 99.1644 111.71 95.1298C107.736 91.1712 104.584 86.466 102.436 81.2848C100.287 76.1037 99.184 70.5488 99.19 64.9398C99.1926 59.3425 100.298 53.8005 102.443 48.6306C104.588 43.4606 107.731 38.7639 111.691 34.8088C115.652 30.8537 120.353 27.7176 125.526 25.5799C130.699 23.4421 136.243 22.3445 141.84 22.3498C149.363 22.3631 156.747 24.3714 163.24 28.1698V10.3998C163.24 7.85546 164.25 5.41517 166.048 3.61511C167.846 1.81505 170.286 0.802455 172.83 0.799805ZM163.24 65.5798V64.2698C163.169 60.5886 162.112 56.9938 160.18 53.8598C158.285 50.7514 155.632 48.1744 152.47 46.3698C149.21 44.542 145.533 43.5879 141.796 43.6002C138.058 43.6124 134.388 44.5906 131.14 46.4398C127.91 48.3147 125.225 50.9998 123.35 54.2298C120.971 58.3007 120.009 63.0456 120.616 67.7215C121.222 72.3973 123.362 76.7401 126.7 80.0698C130.659 84.0829 136.05 86.3595 141.687 86.3988C147.324 86.4382 152.745 84.2372 156.76 80.2798C158.755 78.3771 160.355 76.0989 161.467 73.5763C162.579 71.0536 163.181 68.3361 163.24 65.5798Z" fill="#3772FF"/>
<path d="M206 34.8698C214.01 26.8663 224.865 22.3639 236.188 22.3489C247.512 22.3339 258.379 26.8076 266.41 34.7898C270.462 38.6828 273.67 43.3671 275.836 48.5519C278.002 53.7367 279.079 59.3114 279 64.9298C279.086 70.5518 278.019 76.1318 275.866 81.3258C273.713 86.5198 270.519 91.2177 266.48 95.1298C262.515 99.0983 257.806 102.247 252.623 104.394C247.44 106.542 241.885 107.648 236.275 107.648C230.665 107.648 225.11 106.542 219.927 104.394C214.744 102.247 210.036 99.0983 206.07 95.1298C202.03 91.2191 198.834 86.5215 196.681 81.3272C194.527 76.1328 193.462 70.5521 193.55 64.9298C193.444 59.3322 194.496 53.7731 196.638 48.6006C198.78 43.4281 201.968 38.7536 206 34.8698ZM221.13 80.1398C223.105 82.1289 225.456 83.7063 228.045 84.7806C230.635 85.8549 233.411 86.4047 236.215 86.3981C239.018 86.3916 241.792 85.8289 244.376 84.7426C246.961 83.6564 249.304 82.0681 251.27 80.0698C253.284 78.1018 254.878 75.745 255.954 73.1424C257.03 70.5399 257.566 67.7458 257.53 64.9298C257.409 59.354 255.109 54.0473 251.123 50.1466C247.137 46.246 241.782 44.0616 236.205 44.0616C230.628 44.0616 225.273 46.246 221.287 50.1466C217.301 54.0473 215.001 59.354 214.88 64.9298C214.85 67.758 215.392 70.5631 216.473 73.1767C217.554 75.7904 219.151 78.1588 221.17 80.1398H221.13Z" fill="#3772FF"/>
<path d="M373.15 56.2698C374.514 62.6961 374.34 69.3539 372.64 75.6998C371.094 81.7533 368.237 87.393 364.27 92.2198C360.301 96.9494 355.363 100.772 349.79 103.43C343.536 106.473 336.621 107.907 329.673 107.601C322.725 107.296 315.963 105.26 310 101.68V118.42C310.016 119.828 309.747 121.224 309.209 122.525C308.671 123.826 307.876 125.005 306.87 125.99C305.89 127.027 304.704 127.849 303.389 128.401C302.073 128.954 300.657 129.226 299.23 129.2H288.72V22.1998H310V28.1998C315.119 25.0715 320.865 23.1109 326.828 22.4575C332.791 21.8041 338.825 22.4741 344.5 24.4198C351.706 26.6976 358.168 30.8697 363.21 36.4998C368.296 42.0381 371.738 48.8842 373.15 56.2698ZM316.23 80.1398C319.235 83.1206 323.054 85.1454 327.207 85.9592C331.361 86.773 335.662 86.3394 339.569 84.713C343.477 83.0865 346.815 80.3401 349.164 76.8196C351.513 73.2991 352.768 69.1621 352.77 64.9298C352.77 59.2542 350.515 53.811 346.502 49.7977C342.489 45.7844 337.046 43.5298 331.37 43.5298C325.694 43.5298 320.251 45.7844 316.238 49.7977C312.225 53.811 309.97 59.2542 309.97 64.9298C309.936 67.7558 310.473 70.5596 311.549 73.1732C312.625 75.7867 314.217 78.1562 316.23 80.1398Z" fill="#3772FF"/>
<path d="M524.25 76.2098H545.36C545.407 81.8495 543.95 87.3999 541.14 92.2898C538.381 97.1363 534.353 101.14 529.49 103.87C524.62 106.659 519.102 108.114 513.49 108.09C509.874 108.103 506.281 107.512 502.86 106.34C496.626 104.147 491.23 100.068 487.421 94.6684C483.611 89.2692 481.576 82.8178 481.6 76.2098V1.2098H492.08C493.976 1.20053 495.838 1.70508 497.47 2.6698C499.095 3.62181 500.448 4.975 501.4 6.5998C502.362 8.23586 502.863 10.1019 502.85 11.9998V22.9298H545.36V43.9998H502.85V78.3898C503.388 81.0144 504.881 83.3457 507.04 84.9319C509.199 86.518 511.87 87.2459 514.536 86.9744C517.201 86.7029 519.67 85.4513 521.465 83.4624C523.26 81.4735 524.253 78.8889 524.25 76.2098Z" fill="#3772FF"/>
<path d="M64.69 22.1998V28.1998C58.1975 24.4 50.8127 22.3917 43.29 22.3798C37.688 22.2915 32.1268 23.3465 26.9463 25.4803C21.7658 27.614 17.0748 30.7817 13.16 34.7898C9.11746 38.6863 5.91981 43.3728 3.76594 48.5579C1.61206 53.7431 0.548031 59.3159 0.640015 64.9298C0.551689 70.5521 1.61715 76.1328 3.77056 81.3272C5.92397 86.5215 9.1196 91.2191 13.16 95.1298C17.0597 99.1654 21.7454 102.358 26.9277 104.512C32.11 106.665 37.6788 107.733 43.29 107.65C51.1666 107.647 58.8837 105.429 65.56 101.25C66.4438 103.096 67.7995 104.676 69.49 105.83C71.196 107.03 73.2344 107.666 75.32 107.65H86V22.1998H64.69ZM50.93 52.2698C51.45 48.6598 54.33 46.2698 57.36 47.0298C60.39 47.7898 62.42 51.2298 61.9 54.8298C61.38 58.4298 58.5 60.8298 55.47 60.0698C52.44 59.3098 50.41 55.8698 50.93 52.2698ZM38.62 40.0998C41.34 38.2598 45.06 39.4798 46.93 42.8198C48.8 46.1598 48.12 50.3798 45.4 52.2198C42.68 54.0598 38.97 52.8498 37.1 49.4998C35.23 46.1498 35.91 41.9998 38.62 40.0998ZM24.71 46.0998C27.43 44.2598 31.15 45.4698 33.02 48.8198C34.89 52.1698 34.21 56.3798 31.49 58.2198C28.77 60.0598 25.06 58.8498 23.19 55.4998C21.32 52.1498 22 47.9998 24.71 46.1398V46.0998ZM28.44 71.7698C26.89 74.4698 23.21 74.9698 20.22 72.8898C17.23 70.8098 16.07 66.8898 17.62 64.2398C19.17 61.5898 22.85 61.0398 25.84 63.1198C28.83 65.1998 30 69.1098 28.44 71.8098V71.7698ZM61.82 78.7698C58.06 81.6498 52.54 78.3298 47.98 80.2698C43.36 82.0398 41.68 88.2698 36.98 88.7998C32.28 89.3298 28.68 84.2198 32.98 74.9198C35.78 68.6598 35 63.2998 40.17 61.0598C45.44 59.0598 48.61 63.4898 55.1 66.0598C64.63 69.7598 65.58 75.9398 61.82 78.8098V78.7698Z" fill="#3772FF"/>
<path d="M445.5 76.8498C443.329 80.5656 440.044 83.5043 436.11 85.2498C432.188 87.0525 427.803 87.5941 423.56 86.7998C419.416 86.0802 415.571 84.173 412.49 81.3098L468.56 56.1998L467.9 53.2998C467.826 52.7609 467.695 52.2313 467.51 51.7198C467.172 50.4999 466.744 49.3066 466.23 48.1498C464.504 44.2117 462.139 40.5861 459.23 37.4198C453.369 30.5159 445.375 25.7621 436.51 23.9098C427.579 21.8686 418.224 22.8354 409.9 26.6598C404.343 29.1228 399.377 32.7482 395.339 37.2918C391.301 41.8354 388.284 47.1917 386.49 52.9998C384.75 58.7246 384.218 64.7487 384.93 70.6898C385.774 77.7466 388.404 84.4717 392.57 90.2298C396.394 95.6789 401.447 100.151 407.32 103.284C413.194 106.418 419.722 108.124 426.378 108.265C433.033 108.406 439.628 106.978 445.629 104.097C451.63 101.216 456.869 96.9618 460.92 91.6798C464.283 87.2525 466.759 82.2168 468.21 76.8498H445.5ZM410.38 51.9998C412.487 49.2954 415.237 47.1607 418.38 45.7898C421.511 44.3597 424.945 43.721 428.38 43.9298C431.757 44.1398 435.044 45.1034 438 46.7498L406.12 60.9998C406.855 57.7211 408.31 54.6469 410.38 51.9998Z" fill="#3772FF"/>
</svg>
